<svg version="1.2" xmlns="http://www.w3.org/2000/svg" viewBox="0 0 19 19" width="19" height="19"><style>.a{fill:#fff}</style><path class="a" d="m9.2 4.4q1.3 0 2.3 0.6 1.1 0.7 1.8 1.8 0.6 1.1 0.6 2.3 0 1.3-0.6 2.4-0.7 1.1-1.8 1.7-1 0.6-2.3 0.6-1.3 0-2.4-0.6-1.1-0.6-1.7-1.7-0.6-1.1-0.6-2.4 0-1.2 0.6-2.3 0.6-1.1 1.7-1.8 1.1-0.6 2.4-0.6zm0 7.8q1.3 0 2.2-0.9 0.9-0.9 0.9-2.2 0-1.2-0.9-2.1-0.9-1-2.2-1-1.3 0-2.2 1-0.9 0.9-0.9 2.1 0 1.3 0.9 2.2 0.9 0.9 2.2 0.9zm6-8q0-0.4-0.3-0.8-0.3-0.3-0.8-0.3-0.4 0-0.8 0.3-0.3 0.4-0.3 0.8 0 0.5 0.3 0.8 0.4 0.3 0.8 0.3 0.5 0 0.8-0.3 0.3-0.3 0.3-0.8zm3.1 1.1q0.1 1.2 0.1 3.8 0 2.7-0.1 3.9 0 1.1-0.3 2-0.4 1-1.2 1.8-0.7 0.7-1.7 1.1-0.9 0.3-2.1 0.4-1.1 0-3.8 0-2.7 0-3.8 0-1.2-0.1-2.1-0.4-1-0.4-1.8-1.1-0.7-0.8-1.1-1.8-0.3-0.9-0.3-2-0.1-1.2-0.1-3.9 0-2.6 0.1-3.8 0-1.2 0.3-2 0.4-1.1 1.1-1.8 0.8-0.8 1.8-1.2 0.9-0.2 2.1-0.3 1.1-0.1 3.8-0.1 2.7 0 3.8 0.1 1.2 0.1 2.1 0.3 1 0.4 1.7 1.2 0.8 0.7 1.2 1.8 0.3 0.8 0.3 2zm-1.9 9.2q0.2-0.7 0.3-2.2 0-0.9 0-2.5v-1.3q0-1.7 0-2.6-0.1-1.5-0.3-2.2-0.5-1.3-1.8-1.8-0.7-0.2-2.2-0.3-0.9 0-2.6 0h-1.3q-1.6 0-2.5 0-1.5 0.1-2.2 0.3-1.3 0.5-1.8 1.8-0.2 0.7-0.3 2.2-0.1 0.9-0.1 2.6v1.3q0 1.6 0.1 2.5 0.1 1.5 0.3 2.2 0.5 1.3 1.8 1.8 0.7 0.2 2.2 0.3 0.9 0.1 2.5 0.1h1.3q1.7 0 2.6-0.1 1.5-0.1 2.2-0.3 1.3-0.5 1.8-1.8z"/></svg>