<svg version="1.2" xmlns="http://www.w3.org/2000/svg" viewBox="0 0 18 15" width="18" height="15"><style>.a{fill:#fff}</style><path class="a" d="m16.2 4.1q0 2.5-1.3 4.8-1.2 2.5-3.5 4-2.5 1.7-5.7 1.7-3.1 0-5.7-1.7 0.4 0 0.9 0 2.5 0 4.6-1.5-1.2 0-2.2-0.8-0.9-0.7-1.3-1.8 0.4 0.1 0.7 0.1 0.5 0 1-0.1-1.3-0.3-2.1-1.3-0.9-1.1-0.9-2.4 0.8 0.4 1.7 0.5-0.7-0.6-1.2-1.4-0.5-0.8-0.5-1.7 0-1 0.6-1.9 1.3 1.7 3.3 2.7 2 1.1 4.3 1.2-0.1-0.4-0.1-0.9 0-1 0.5-1.8 0.5-0.9 1.3-1.4 0.9-0.5 1.8-0.5 0.9 0 1.5 0.4 0.7 0.3 1.3 0.8 1.2-0.2 2.3-0.9-0.4 1.3-1.6 2.1 1-0.2 2.1-0.6-0.8 1.1-1.9 1.9 0.1 0.1 0.1 0.5z"/></svg>